<?xml version="1.0" encoding="UTF-8"?>
<svg version="1.1" xmlns="http://www.w3.org/2000/svg" width="512" height="512">
<path d="M0 0 C3.33900519 0.00460575 6.67764378 -0.00221642 10.01660156 -0.02050781 C40.92630487 -0.18795122 71.63062821 1.45506771 102.2878418 5.56567383 C103.44610977 5.71658478 103.44610977 5.71658478 104.6277771 5.87054443 C117.16746305 7.51367025 129.61141103 9.59480822 142.0378418 11.94067383 C142.81443146 12.08670044 143.59102112 12.23272705 144.3911438 12.38317871 C166.99108366 16.67297232 166.99108366 16.67297232 174.5378418 21.75317383 C175.41053711 22.32938477 176.28323242 22.9055957 177.18237305 23.49926758 C189.0828756 31.99962654 197.86413911 44.45437117 201.31358373 58.81196725 C202.19952277 64.19894468 202.00196326 69.66677241 201.98603821 75.11140442 C201.98906172 76.51290343 201.9929522 77.91440079 201.99763077 79.31589526 C202.00789394 83.15314743 202.00573325 86.990306 202.00145018 90.82756579 C201.99897988 94.97151544 202.00800094 99.11544273 202.01548767 103.25938416 C202.02822855 111.3727127 202.0300291 119.48600814 202.02768741 127.59934501 C202.02590329 134.19565053 202.02765591 140.79194602 202.03191185 147.38825035 C202.03250704 148.3276133 202.03310223 149.26697625 202.03371545 150.23480475 C202.03492723 152.14322943 202.03614136 154.05165412 202.03735783 155.9600788 C202.04823116 173.85252511 202.04607194 191.74495256 202.03997298 209.63739993 C202.03480487 225.99626236 202.04605687 242.35506522 202.0650712 258.71391586 C202.08445628 275.52090232 202.09270437 292.3278606 202.08894795 309.13485831 C202.08703682 318.56677599 202.08951489 327.99864298 202.10366249 337.43055153 C202.11558583 345.46072569 202.11697053 353.49081796 202.10487232 361.52099327 C202.09899014 365.61552861 202.09786583 369.70991424 202.10987473 373.80443954 C202.12075554 377.5580661 202.11760428 381.31141836 202.10361304 385.06503221 C202.09972805 387.05476609 202.11049528 389.04451225 202.12190992 391.03421718 C202.05065297 402.91266734 199.93438149 411.80669922 192.7253418 421.31567383 C192.1478418 422.18192383 191.5703418 423.04817383 190.9753418 423.94067383 C179.78630811 435.7513205 166.82268192 437.68085613 151.29492188 438.16479492 C148.77174277 438.2268079 146.24899443 438.27846695 143.7253418 438.31567383 C144.14493164 439.07182983 144.14493164 439.07182983 144.57299805 439.84326172 C151.54126735 452.4340393 158.25076741 465.13629264 164.81323242 477.9414978 C169.60086185 487.27831922 174.49698744 496.53869259 179.62792969 505.69311523 C182.7253418 511.2268365 182.7253418 511.2268365 182.7253418 512.31567383 C163.5853418 512.31567383 144.4453418 512.31567383 124.7253418 512.31567383 C112.7253418 490.31567383 112.7253418 490.31567383 111.7253418 488.31567383 C41.7653418 488.31567383 -28.1946582 488.31567383 -100.2746582 488.31567383 C-104.2346582 495.90567383 -108.1946582 503.49567383 -112.2746582 511.31567383 C-113.2746582 512.31567383 -113.2746582 512.31567383 -115.59681702 512.43592834 C-116.62496017 512.43370773 -117.65310333 512.43148712 -118.71240234 512.42919922 C-119.87353043 512.42912369 -121.03465851 512.42904816 -122.23097229 512.42897034 C-124.12624916 512.42122841 -124.12624916 512.42122841 -126.05981445 512.41333008 C-127.34577011 512.41191513 -128.63172577 512.41050018 -129.95664978 512.40904236 C-133.38109263 512.40521801 -136.80549329 512.39538845 -140.22991943 512.38433838 C-143.72204009 512.37412247 -147.21416754 512.36954435 -150.70629883 512.36450195 C-157.56243599 512.35376609 -164.41854507 512.33669067 -171.2746582 512.31567383 C-165.86225115 501.36718421 -160.26715619 490.53174467 -154.5246582 479.75317383 C-152.94669986 476.78502627 -151.37021875 473.81609605 -149.79418945 470.84692383 C-149.4082814 470.12016953 -149.02237335 469.39341522 -148.62477112 468.64463806 C-144.60779801 461.07240492 -140.64848734 453.47048234 -136.71508789 445.85449219 C-136.26939453 444.99476807 -135.82370117 444.13504395 -135.36450195 443.24926758 C-134.79010376 442.13636353 -134.79010376 442.13636353 -134.20410156 441.00097656 C-133.2746582 439.31567383 -133.2746582 439.31567383 -132.2746582 438.31567383 C-133.22550293 438.30165527 -133.22550293 438.30165527 -134.19555664 438.28735352 C-151.34751632 437.96960926 -164.8929814 437.20085841 -178.2746582 425.31567383 C-188.56826388 414.27305318 -190.57717265 402.15661688 -190.54208374 387.53340149 C-190.5458241 386.13332744 -190.55042715 384.73325548 -190.55581439 383.33318681 C-190.56801235 379.49980035 -190.56778771 375.66650138 -190.56542563 371.83309996 C-190.56501665 367.69319869 -190.57606443 363.55332516 -190.58554077 359.41343689 C-190.6021345 351.30746211 -190.60764959 343.20151642 -190.60876553 335.09552608 C-190.60971684 328.50400463 -190.61383129 321.91249276 -190.62016678 315.32097435 C-190.63777528 296.61932864 -190.64700634 277.91770586 -190.64550583 259.21605179 C-190.64542592 258.20841193 -190.64534601 257.20077206 -190.64526367 256.16259766 C-190.64518191 255.15372268 -190.64510015 254.14484771 -190.64501591 253.10540076 C-190.64420327 236.76080668 -190.66333632 220.41630481 -190.69154041 204.07173739 C-190.72029347 187.27604047 -190.73407934 170.48038848 -190.73235285 153.68466634 C-190.73168976 144.26049001 -190.73714674 134.83641035 -190.75870895 125.41225624 C-190.77695271 117.38724699 -190.78124195 109.36237819 -190.76769011 101.33735714 C-190.76117635 97.24657941 -190.76098524 93.1560709 -190.77839661 89.06531906 C-190.79420359 85.31275306 -190.7911869 81.56066805 -190.77382834 77.80811324 C-190.76934026 75.8238253 -190.78435574 73.83952199 -190.80030763 71.8552931 C-190.67957596 56.03392991 -185.02388456 41.77602221 -174.2199707 30.12426758 C-165.80112645 22.29710917 -156.18383173 17.34227111 -145.0246582 14.94067383 C-144.09411621 14.73643799 -143.16357422 14.53220215 -142.20483398 14.32177734 C-120.90341528 9.79696618 -99.34990793 6.47352865 -77.7121582 4.06567383 C-76.68623566 3.95024734 -76.68623566 3.95024734 -75.6395874 3.83248901 C-70.52322093 3.26481987 -65.40124986 2.78073535 -60.2746582 2.31567383 C-59.35828583 2.22847076 -58.44191345 2.1412677 -57.49777222 2.05142212 C-38.32186391 0.26178089 -19.24278296 -0.02871656 0 0 Z M-74.2746582 437.31567383 C-81.7463088 448.33055114 -81.7463088 448.33055114 -85.2746582 460.31567383 C-25.2146582 460.31567383 34.8453418 460.31567383 96.7253418 460.31567383 C94.03792255 452.25341608 89.70162282 444.82642688 85.7253418 437.31567383 C32.9253418 437.31567383 -19.8746582 437.31567383 -74.2746582 437.31567383 Z " fill="#F2705A" transform="translate(250.274658203125,-0.315673828125)"/>
<path d="M0 0 C18.54254672 -2.09131646 37.1086594 -3.4707324 55.75 -4.25 C56.43449077 -4.27940013 57.11898154 -4.30880026 57.82421446 -4.3390913 C90.34510793 -5.69678051 119.90532779 -5.59300672 145.49953079 17.30282593 C160.18949909 30.99358648 173.19737305 46.96082787 184.64522934 63.43572617 C187.95713648 68.17785441 187.95713648 68.17785441 193.12890625 70.51171875 C197.08477255 70.79745548 199.97593319 70.66550524 203.3633728 68.46412659 C208.71673591 63.62882301 213.01438012 58.48262932 217.07992649 52.55799675 C231.98354322 30.85693828 251.89302645 4.03273666 279.02386475 -1.71704102 C297.75910676 -4.85626553 316.8924955 -4.52465336 335.8125 -3.8125 C336.50387841 -3.78699145 337.19525682 -3.7614829 337.9075861 -3.73520136 C355.98239034 -3.05327682 374.00158257 -1.80008253 392 0 C392.0696801 12.84836781 392.12290262 25.69669025 392.15543652 38.54520893 C392.17105549 44.51205967 392.19222484 50.47878059 392.22631836 56.44555664 C392.25904626 62.20976719 392.27688133 67.97385331 392.28463173 73.73814964 C392.29015117 75.93124537 392.30092902 78.12433471 392.31719017 80.31737709 C392.33914293 83.40224255 392.34195949 86.48660152 392.34057617 89.5715332 C392.35675491 90.91482193 392.35675491 90.91482193 392.3732605 92.2852478 C392.32155674 103.02390993 389.46547443 111.47181389 383 120 C382.13375 121.299375 382.13375 121.299375 381.25 122.625 C370.06096631 134.43564667 357.09734012 136.36518231 341.56958008 136.84912109 C339.04640097 136.91113407 336.52365263 136.96279312 334 137 C334.27972656 137.504104 334.55945313 138.00820801 334.84765625 138.52758789 C341.81592555 151.11836548 348.52542562 163.82061881 355.08789062 176.62582397 C359.87552006 185.96264539 364.77164564 195.22301877 369.90258789 204.37744141 C373 209.91116267 373 209.91116267 373 211 C353.86 211 334.72 211 315 211 C303 189 303 189 302 187 C232.04 187 162.08 187 90 187 C86.04 194.59 82.08 202.18 78 210 C77 211 77 211 74.67784119 211.12025452 C73.64969803 211.11803391 72.62155487 211.11581329 71.56225586 211.11352539 C70.40112778 211.11344986 69.23999969 211.11337433 68.04368591 211.11329651 C66.14840904 211.10555458 66.14840904 211.10555458 64.21484375 211.09765625 C62.92888809 211.0962413 61.64293243 211.09482635 60.31800842 211.09336853 C56.89356557 211.08954418 53.46916491 211.07971462 50.04473877 211.06866455 C46.55261811 211.05844864 43.06049066 211.05387053 39.56835938 211.04882812 C32.71222222 211.03809227 25.85611313 211.02101684 19 211 C24.41240705 200.05151039 30.00750201 189.21607085 35.75 178.4375 C37.32795834 175.46935244 38.90443945 172.50042222 40.48046875 169.53125 C40.8663768 168.8044957 41.25228485 168.07774139 41.64988708 167.32896423 C45.66686019 159.75673109 49.62617087 152.15480852 53.55957031 144.53881836 C54.00526367 143.67909424 54.45095703 142.81937012 54.91015625 141.93359375 C55.48455444 140.8206897 55.48455444 140.8206897 56.07055664 139.68530273 C57 138 57 138 58 137 C57.04915527 136.98598145 57.04915527 136.98598145 56.07910156 136.97167969 C38.92714188 136.65393543 25.3816768 135.88518458 12 124 C2.90027549 114.23813337 -0.33093756 103.00620895 -0.22705078 89.91210938 C-0.22734283 88.93558411 -0.22763489 87.95905884 -0.22793579 86.95294189 C-0.22655097 83.74978512 -0.21102977 80.54686576 -0.1953125 77.34375 C-0.19157936 75.11316047 -0.18873381 72.8825693 -0.18673706 70.65197754 C-0.17912435 64.79943259 -0.15949617 58.94698793 -0.1373291 53.09448242 C-0.11681973 47.11508541 -0.10772447 41.1356721 -0.09765625 35.15625 C-0.07624803 23.4374561 -0.04214067 11.71873641 0 0 Z M116 136 C108.5283494 147.01487731 108.5283494 147.01487731 105 159 C165.06 159 225.12 159 287 159 C284.31258075 150.93774225 279.97628103 143.51075305 276 136 C223.2 136 170.4 136 116 136 Z " fill="#F26F5A" transform="translate(60,301)"/>
<path d="M0 0 C1.06116028 -0.00860046 2.12232056 -0.01720093 3.21563721 -0.02606201 C4.37982681 -0.03032196 5.54401642 -0.03458191 6.7434845 -0.03897095 C8.5829213 -0.05123718 8.5829213 -0.05123718 10.45951843 -0.06375122 C14.52788466 -0.08861438 18.59621372 -0.10527788 22.66462708 -0.11953735 C24.06705036 -0.12489863 25.46947358 -0.13027614 26.87189674 -0.13566971 C32.70785093 -0.15729591 38.54380239 -0.17603058 44.37978649 -0.1872921 C52.73263714 -0.20351823 61.08502168 -0.23666576 69.43769664 -0.29369295 C75.31638976 -0.33245491 81.19495855 -0.35193226 87.07377607 -0.35721266 C90.58193996 -0.36085822 94.08960639 -0.37279286 97.59763145 -0.4053154 C101.51617815 -0.44112303 105.43414496 -0.43700922 109.3528595 -0.42959595 C110.50692795 -0.44600128 111.6609964 -0.46240662 112.85003662 -0.47930908 C119.81368598 -0.42543651 124.51427847 0.552194 129.87165833 5.15390015 C133.6159825 9.18624926 134.99180329 12.18746946 135.01210022 17.65031433 C135.01781036 18.57132431 135.02352051 19.49233429 135.02940369 20.44125366 C135.03108047 21.95380737 135.03108047 21.95380737 135.03279114 23.49691772 C135.03775604 24.56061081 135.04272095 25.62430389 135.0478363 26.7202301 C135.06246573 30.24630373 135.06926126 33.77233238 135.07478333 37.2984314 C135.08053414 39.74599713 135.08629188 42.19356284 135.09205627 44.64112854 C135.10256849 49.77665416 135.10840972 54.91216411 135.1118927 60.04769897 C135.11737782 66.62852031 135.14140553 73.20913479 135.16986465 79.78989124 C135.18848739 84.84707749 135.19369645 89.90421387 135.19522858 94.9614315 C135.19825645 97.38752053 135.20628947 99.81360866 135.21941376 102.23966408 C135.23646614 105.63416918 135.2345957 109.02816843 135.22810364 112.42269897 C135.23731842 113.42499542 135.2465332 114.42729187 135.25602722 115.45996094 C135.2148666 122.32950442 134.09222765 126.58271461 129.49665833 131.90390015 C125.37218267 135.43916499 121.83310984 136.40195887 116.45811462 136.42132568 C114.84746124 136.43412064 114.84746124 136.43412064 113.20426941 136.44717407 C112.03634857 136.4462677 110.86842773 136.44536133 109.66511536 136.44442749 C108.42717224 136.45114471 107.18922913 136.45786194 105.91377258 136.46478271 C102.5252018 136.48051193 99.13687613 136.48713691 95.74828577 136.48841429 C93.62902818 136.48983794 91.50979613 136.49411159 89.39054489 136.49940872 C81.9908409 136.51789975 74.59120887 136.52608047 67.19148254 136.52450562 C60.30393515 136.52330433 53.41670119 136.54440614 46.5292331 136.57599294 C40.60718859 136.6021802 34.68524631 136.6128719 28.76314437 136.6115948 C25.2299909 136.61108589 21.69711612 136.61672894 18.16402054 136.6379509 C14.22155357 136.6609864 10.27951359 136.65179732 6.33699036 136.63973999 C4.59118179 136.65659851 4.59118179 136.65659851 2.81010437 136.67379761 C-3.72407378 136.6230151 -7.8523384 136.12749831 -13.12834167 132.15390015 C-16.58269638 127.69960066 -18.24579375 124.23622757 -18.2755127 118.62625122 C-18.282668 117.69827225 -18.2898233 116.77029327 -18.29719543 115.81419373 C-18.29988434 114.79804489 -18.30257324 113.78189606 -18.30534363 112.73495483 C-18.31191483 111.66311447 -18.31848602 110.59127411 -18.32525635 109.48695374 C-18.34499725 105.93322685 -18.35665364 102.37954224 -18.36662292 98.82577515 C-18.37069845 97.612649 -18.37477398 96.39952286 -18.37897301 95.14963531 C-18.39983691 88.72902089 -18.41413739 82.30842786 -18.42350769 75.88778687 C-18.43457396 69.25543723 -18.46897595 62.62342293 -18.50867939 55.99119186 C-18.53482147 50.8919309 -18.54319741 45.79275013 -18.54678917 40.69342804 C-18.55166115 38.24861638 -18.56329244 35.80380845 -18.58182716 33.35906219 C-18.60616679 29.93591212 -18.60526256 26.51363365 -18.59831238 23.09042358 C-18.61112244 22.08237167 -18.6239325 21.07431976 -18.63713074 20.03572083 C-18.59150557 13.86421439 -17.7919155 10.17794333 -14.12834167 5.15390015 C-9.4206113 1.5030072 -5.90042751 0.03560695 0 0 Z " fill="#F3F2F2" transform="translate(112.12834167480469,109.84609985351563)"/>
<path d="M0 0 C1.5960759 -0.00856522 1.5960759 -0.00856522 3.22439575 -0.01730347 C4.39172745 -0.01842133 5.55905914 -0.01953918 6.76176453 -0.02069092 C7.99126831 -0.02565582 9.22077209 -0.03062073 10.48753357 -0.03573608 C13.861634 -0.04784606 17.23567244 -0.05530327 20.60978723 -0.05974674 C22.71863271 -0.06267914 24.82747278 -0.06678428 26.93631554 -0.07125092 C33.53683392 -0.08492377 40.1373399 -0.0945913 46.73787147 -0.09845281 C54.35263778 -0.10293235 61.96722448 -0.12047615 69.58193618 -0.1494534 C75.47079278 -0.17108371 81.3595989 -0.18115781 87.2484948 -0.18249393 C90.7642779 -0.18354105 94.27989211 -0.18942886 97.79563332 -0.20731354 C101.71929824 -0.22688511 105.64273947 -0.22249984 109.56645203 -0.21600342 C110.72771103 -0.2252182 111.88897003 -0.23443298 113.0854187 -0.243927 C119.73485079 -0.20939893 124.65999217 0.12996947 129.72148132 4.89434814 C130.19972351 5.49118408 130.6779657 6.08802002 131.17070007 6.70294189 C131.66183289 7.30235596 132.1529657 7.90177002 132.65898132 8.51934814 C134.73641121 11.32760027 134.98713784 13.10086711 135.00537109 16.54110718 C135.01610405 17.9288459 135.01610405 17.9288459 135.02705383 19.34461975 C135.02974274 20.36279282 135.03243164 21.38096588 135.03520203 22.42999268 C135.04177322 23.50008072 135.04834442 24.57016876 135.05511475 25.67268372 C135.07488369 29.22704127 135.08651973 32.78135645 135.09648132 36.33575439 C135.10055685 37.54854946 135.10463238 38.76134453 135.10883141 40.01089096 C135.12970966 46.43265362 135.14400255 52.8543948 135.15336609 59.27618408 C135.16442089 65.90734335 135.19880554 72.53816616 135.23853779 79.16920662 C135.26469865 84.26851013 135.2730576 89.36773352 135.27664757 94.46709824 C135.28151658 96.91108339 135.29313943 99.35506489 135.31168556 101.79898453 C135.33605966 105.22443404 135.33511435 108.64901405 135.32817078 112.07452393 C135.34738586 113.58356544 135.34738586 113.58356544 135.36698914 115.12309265 C135.32194718 121.23400236 134.50574974 126.10183792 130.85820007 131.14044189 C126.18262347 134.86181919 122.59067091 136.26053623 116.68516541 136.28761292 C115.61414581 136.29476822 114.54312622 136.30192352 113.43965149 136.30929565 C112.2645401 136.31198456 111.08942871 136.31467346 109.87870789 136.31744385 C108.64105682 136.32401505 107.40340576 136.33058624 106.12825012 136.33735657 C102.02260599 136.35710638 97.91700093 136.36875763 93.81132507 136.37872314 C92.39649689 136.38277155 90.98166891 136.3868885 89.56684113 136.39107323 C82.91880377 136.4101212 76.27077749 136.4243526 69.6227181 136.4326852 C61.95583915 136.44245412 54.28924919 136.46876595 46.62247205 136.50918609 C40.69198784 136.53937622 34.76158634 136.55415683 28.83102679 136.55746621 C25.2911183 136.55981357 21.75151867 136.56873243 18.21169281 136.59392738 C14.25945861 136.62160342 10.30760263 136.61736806 6.35527039 136.6104126 C4.60474869 136.62962769 4.60474869 136.62962769 2.81886292 136.64923096 C-3.72542475 136.60724409 -7.85918053 136.12360259 -13.14179993 132.14044189 C-16.58341822 127.70256568 -18.25907725 124.24213519 -18.28897095 118.65075684 C-18.29612625 117.73119202 -18.30328156 116.8116272 -18.31065369 115.86419678 C-18.31334259 114.85739868 -18.31603149 113.85060059 -18.31880188 112.81329346 C-18.32537308 111.75120667 -18.33194427 110.68911987 -18.3387146 109.59484863 C-18.35845489 106.07358736 -18.37011177 102.55236875 -18.38008118 99.03106689 C-18.3841567 97.82897331 -18.38823223 96.62687973 -18.39243126 95.38835907 C-18.41329493 89.02609936 -18.42759549 82.66386124 -18.43696594 76.30157471 C-18.448032 69.72975783 -18.4824338 63.15827939 -18.52213764 56.58658218 C-18.54828073 51.5336443 -18.55665575 46.48078735 -18.56024742 41.42778778 C-18.56511917 39.0053046 -18.57674978 36.58282518 -18.59528542 34.16040802 C-18.61962715 30.76838852 -18.61872044 27.37724853 -18.61177063 23.98516846 C-18.62458069 22.98646729 -18.63739075 21.98776611 -18.65058899 20.95880127 C-18.59876082 14.01104562 -17.34832607 9.63704498 -12.54414368 4.39825439 C-8.227944 1.06039331 -5.38620589 0.01730284 0 0 Z " fill="#F3F2F2" transform="translate(283.1417999267578,109.85955810546875)"/>
<path d="M0 0 C0.77160965 -0.00335861 1.5432193 -0.00671722 2.33821106 -0.01017761 C4.88670473 -0.01966438 7.43513235 -0.0216306 9.98364258 -0.02270508 C11.77183559 -0.02592284 13.56002835 -0.02928729 15.34822083 -0.03279114 C19.10324715 -0.03877931 22.85825049 -0.04063172 26.61328125 -0.04003906 C31.37456761 -0.03993828 36.135702 -0.05350377 40.89695263 -0.07081127 C44.59752548 -0.08206096 48.29806333 -0.08395423 51.9986515 -0.08342934 C53.7505374 -0.08459338 55.50242469 -0.08892411 57.25429344 -0.0967617 C67.75986391 -0.13930563 78.00136032 0.35910774 88.42785645 1.68229675 C92.78965172 2.2189603 97.11510913 2.48937261 101.50317383 2.64526367 C107.63650184 2.93275307 113.59086494 3.52524343 119.65161133 4.55541992 C123.11365726 5.13242758 126.57817375 5.62540453 130.05493164 6.1027832 C139.31733996 7.38053858 148.55467934 8.80647558 157.78103638 10.3218689 C159.6982518 10.63625745 161.6162068 10.94612539 163.53417969 11.25585938 C179.47342677 13.90407284 192.28833739 16.41059443 202.19067383 30.14526367 C206.94295932 38.08981389 207.19067383 43.33396031 207.19067383 53.14526367 C92.35067383 53.14526367 -22.48932617 53.14526367 -140.80932617 53.14526367 C-140.80932617 40.69210025 -138.88012564 32.26447261 -130.49682617 23.08276367 C-119.3530195 13.29495117 -104.11244614 12.22663239 -90.03027344 10.14672852 C-85.79230715 9.59038604 -85.79230715 9.59038604 -81.80932617 8.14526367 C-80.2382872 7.88995457 -78.65952286 7.68140975 -77.07861328 7.49682617 C-76.092556 7.38000488 -75.10649872 7.26318359 -74.09056091 7.14282227 C-73.01677689 7.01987793 -71.94299286 6.89693359 -70.83666992 6.77026367 C-69.72562393 6.64087402 -68.61457794 6.51148438 -67.46986389 6.37817383 C-65.10529234 6.10396907 -62.74049212 5.83173025 -60.37548828 5.5612793 C-56.81296004 5.15284573 -53.25156518 4.73545395 -49.69018555 4.31713867 C-38.48836622 3.0180921 -27.33888513 1.83409207 -16.06933594 1.35620117 C-12.9623049 1.2416004 -12.9623049 1.2416004 -10.59365845 0.64115906 C-7.05444715 0.01081814 -3.58185594 -0.00225293 0 0 Z " fill="#F05540" transform="translate(222.809326171875,21.854736328125)"/>
<path d="M0 0 C1.51223648 0.00666183 1.51223648 0.00666183 3.05502319 0.01345825 C4.19605499 0.01360931 5.33708679 0.01376038 6.51269531 0.01391602 C8.36741959 0.02939987 8.36741959 0.02939987 10.25961304 0.04519653 C12.15313004 0.04944138 12.15313004 0.04944138 14.0848999 0.05377197 C17.44201998 0.06308772 20.79886965 0.08106068 24.15591431 0.10317993 C27.58108176 0.12363353 31.00627713 0.13277264 34.43148804 0.14285278 C41.15291724 0.16494445 47.87421827 0.19844527 54.59555054 0.24050903 C51.90813129 8.30276678 47.57183156 15.72975598 43.59555054 23.24050903 C103.65555054 23.24050903 163.71555054 23.24050903 225.59555054 23.24050903 C221.96555054 16.31050903 218.33555054 9.38050903 214.59555054 2.24050903 C214.59555054 1.58050903 214.59555054 0.92050903 214.59555054 0.24050903 C221.94061906 0.05489757 229.28517987 -0.0871188 236.63212109 -0.17398834 C240.04403363 -0.21569022 243.45433873 -0.27221053 246.86532593 -0.36300659 C250.78952568 -0.46680623 254.71308182 -0.50542238 258.63851929 -0.54074097 C259.85951828 -0.58203125 261.08051727 -0.62332153 262.33851624 -0.66586304 C270.58126822 -0.67022896 270.58126822 -0.67022896 273.38963318 1.85144043 C274.71946081 3.92880007 275.67440019 5.95543909 276.59555054 8.24050903 C277.46385498 9.83499878 277.46385498 9.83499878 278.34970093 11.46170044 C278.87555786 12.4947229 279.40141479 13.52774536 279.94320679 14.59207153 C280.54254028 15.76229858 281.14187378 16.93252563 281.7593689 18.13821411 C282.06905609 18.74629913 282.37874329 19.35438416 282.69781494 19.980896 C288.09527354 30.57425546 293.60032032 41.09567873 299.3868103 51.48318481 C303.71474201 59.29999997 307.5836798 67.21676755 311.59555054 75.24050903 C292.45555054 75.24050903 273.31555054 75.24050903 253.59555054 75.24050903 C241.59555054 53.24050903 241.59555054 53.24050903 240.59555054 51.24050903 C170.63555054 51.24050903 100.67555054 51.24050903 28.59555054 51.24050903 C24.63555054 58.83050903 20.67555054 66.42050903 16.59555054 74.24050903 C15.59555054 75.24050903 15.59555054 75.24050903 13.27339172 75.36076355 C12.24524857 75.35854294 11.21710541 75.35632233 10.1578064 75.35403442 C8.41611427 75.35392113 8.41611427 75.35392113 6.63923645 75.35380554 C4.74395958 75.34606361 4.74395958 75.34606361 2.81039429 75.33816528 C1.52443863 75.33675034 0.23848297 75.33533539 -1.08644104 75.33387756 C-4.51088389 75.33005321 -7.93528455 75.32022365 -11.35971069 75.30917358 C-14.85183135 75.29895768 -18.3439588 75.29437956 -21.83609009 75.28933716 C-28.69222725 75.2786013 -35.54833633 75.26152587 -42.40444946 75.24050903 C-36.99205157 64.29203794 -31.39744739 53.45630184 -25.65444946 42.67800903 C-24.07516998 39.7085696 -22.49729434 36.73838664 -20.92007446 33.76785278 C-20.53395996 33.04089203 -20.14784546 32.31393127 -19.75003052 31.56494141 C-15.75270654 24.02932495 -11.82147572 16.45948415 -7.93276978 8.86721802 C-7.49029907 8.01071655 -7.04782837 7.15421509 -6.59194946 6.27175903 C-6.21425415 5.53505981 -5.83655884 4.7983606 -5.44741821 4.03933716 C-3.91575056 1.3976407 -3.10835591 0.31091844 0 0 Z " fill="#344A5E" transform="translate(121.40444946289063,436.7594909667969)"/>
<path d="M0 0 C16.17706402 -0.06950748 32.35406627 -0.12301481 48.53124332 -0.15543652 C56.0429347 -0.17089197 63.55453147 -0.19195612 71.06616211 -0.22631836 C77.61486245 -0.25626131 84.16349425 -0.27558461 90.71226114 -0.28226548 C94.1783935 -0.28616949 97.64432984 -0.29531659 101.11039925 -0.31719017 C104.98387393 -0.34143552 108.85715849 -0.34196685 112.73071289 -0.34057617 C113.87438828 -0.351362 115.01806366 -0.36214783 116.19639587 -0.3732605 C125.0574423 -0.33883128 130.4616124 1.0292108 136.8690033 7.37132263 C137.43293289 7.94963333 137.99686249 8.52794403 138.57788086 9.1237793 C139.19337799 9.73869232 139.80887512 10.35360535 140.44302368 10.9871521 C142.4599337 13.00683214 144.46233071 15.0402719 146.46484375 17.07421875 C147.86643799 18.48327918 149.26892237 19.8914547 150.67225647 21.29878235 C154.35212057 24.99387279 158.01981035 28.70081929 161.68505859 32.41040039 C165.43182148 36.1981803 169.19002283 39.9745735 172.94726562 43.75195312 C180.30938984 51.15689533 187.65869753 58.57441853 195 66 C199.15120078 64.37070837 201.90192659 61.3440833 204.95849609 58.22094727 C205.54441025 57.63050629 206.1303244 57.04006531 206.73399353 56.43173218 C208.00368799 55.1510927 209.27109908 53.86818623 210.53647995 52.58328438 C212.54126763 50.54830762 214.5526823 48.52010267 216.56607056 46.49363708 C222.28862464 40.73135435 227.99843637 34.95650403 233.70507812 29.1784668 C237.19817254 25.64260195 240.69859113 22.11412037 244.20338821 18.5898571 C245.5355251 17.24716852 246.86473978 15.90157402 248.19092941 14.55301094 C250.04805466 12.66460809 251.91429292 10.7856642 253.78271484 8.90844727 C254.32525406 8.35198013 254.86779327 7.795513 255.42677307 7.22218323 C261.42183821 1.24145881 266.30063657 -0.34067555 274.74264526 -0.3732605 C276.47757736 -0.35708176 276.47757736 -0.35708176 278.24755859 -0.34057617 C279.47738464 -0.34101425 280.70721069 -0.34145233 281.9743042 -0.34190369 C285.33356483 -0.34017595 288.69226737 -0.32516624 292.05142927 -0.30418181 C295.56679091 -0.28538457 299.08216056 -0.28366218 302.5975647 -0.28010559 C309.24855482 -0.27079404 315.8993964 -0.24619243 322.55032122 -0.21605712 C330.12466043 -0.1824853 337.69900685 -0.16602013 345.27340198 -0.15097082 C360.84902292 -0.11964198 376.42448644 -0.06629221 392 0 C392 7.26 392 14.52 392 22 C388.72094727 21.67418945 385.44189453 21.34837891 382.06347656 21.01269531 C366.81718476 19.59584701 351.5506902 18.75678945 336.25 18.25 C335.56550923 18.22654841 334.88101846 18.20309682 334.17578554 18.17893457 C300.02487579 17.04963341 270.4277657 18.05784613 244.06723022 42.64059448 C230.46439466 55.88872201 218.20254753 70.87448537 207.35477066 86.44684219 C203.11059337 92.49268306 203.11059337 92.49268306 198.87109375 93.51171875 C194.91455691 93.79750391 192.02393959 93.66595805 188.6366272 91.46289062 C183.29044986 86.63188595 178.98851375 81.49190669 174.92007351 75.5786562 C159.96805492 53.86358596 140.07428032 27.15959621 112.97613525 21.2387085 C94.25693769 17.97228459 75.11984147 18.13857507 56.1875 18.6875 C55.49612159 18.70703484 54.80474318 18.72656967 54.0924139 18.74669647 C36.0169651 19.27233927 18.01467928 20.42899565 0 22 C0 14.74 0 7.48 0 0 Z " fill="#FECF5B" transform="translate(60,279)"/>
<path d="M0 0 C7.34506852 -0.18561146 14.68962934 -0.32762784 22.03657055 -0.41449738 C25.4484831 -0.45619925 28.85878819 -0.51271956 32.26977539 -0.60351562 C36.19397515 -0.70731526 40.11753129 -0.74593142 44.04296875 -0.78125 C45.26396774 -0.82254028 46.48496674 -0.86383057 47.7429657 -0.90637207 C55.98571769 -0.91073799 55.98571769 -0.91073799 58.79408264 1.6109314 C60.12391027 3.68829104 61.07884965 5.71493006 62 8 C62.57886963 9.06299316 63.15773926 10.12598633 63.75415039 11.22119141 C64.28000732 12.25421387 64.80586426 13.28723633 65.34765625 14.3515625 C66.24665649 16.10690308 66.24665649 16.10690308 67.16381836 17.89770508 C67.47350555 18.5057901 67.78319275 19.11387512 68.1022644 19.74038696 C73.499723 30.33374643 79.00476979 40.8551697 84.79125977 51.24267578 C89.11919147 59.05949093 92.98812926 66.97625852 97 75 C77.86 75 58.72 75 39 75 C26.26689189 51.65596847 26.26689189 51.65596847 20.77734375 39.72265625 C18.79969242 35.49791591 16.47823467 31.52282942 14.07421875 27.52734375 C11.10789834 22.54985505 8.34776146 17.45513132 5.5625 12.375 C5.01754883 11.38927002 4.47259766 10.40354004 3.91113281 9.38793945 C3.40549805 8.46327881 2.89986328 7.53861816 2.37890625 6.5859375 C1.9207251 5.7511084 1.46254395 4.9162793 0.99047852 4.05615234 C0 2 0 2 0 0 Z " fill="#40596A" transform="translate(336,437)"/>
<path d="M0 0 C1.51223648 0.00666183 1.51223648 0.00666183 3.05502319 0.01345825 C4.19605499 0.01360931 5.33708679 0.01376038 6.51269531 0.01391602 C8.36741959 0.02939987 8.36741959 0.02939987 10.25961304 0.04519653 C12.15313004 0.04944138 12.15313004 0.04944138 14.0848999 0.05377197 C17.44201998 0.06308772 20.79886965 0.08106068 24.15591431 0.10317993 C27.58108176 0.12363353 31.00627713 0.13277264 34.43148804 0.14285278 C41.15291724 0.16494445 47.87421827 0.19844527 54.59555054 0.24050903 C53.50898872 3.66526482 52.41519526 6.86649869 50.63461304 9.99050903 C50.06009399 11.00975464 50.06009399 11.00975464 49.47396851 12.04959106 C49.06034058 12.77259399 48.64671265 13.49559692 48.22055054 14.24050903 C47.31872975 15.84163295 46.41772489 17.44321663 45.51742554 19.04519653 C45.04240601 19.88792114 44.56738647 20.73064575 44.07797241 21.59890747 C37.30507344 33.66787435 30.66696624 45.80014252 24.60726929 58.24441528 C21.72385814 63.97204558 18.6357028 69.59451197 15.59555054 75.24050903 C-3.54444946 75.24050903 -22.68444946 75.24050903 -42.40444946 75.24050903 C-33.22545139 56.88251288 -33.22545139 56.88251288 -30.10757446 51.04910278 C-29.75145081 50.37851334 -29.39532715 49.70792389 -29.02841187 49.01701355 C-27.90549106 46.90308499 -26.78005335 44.79050992 -25.65444946 42.67800903 C-24.07516998 39.7085696 -22.49729434 36.73838664 -20.92007446 33.76785278 C-20.53395996 33.04089203 -20.14784546 32.31393127 -19.75003052 31.56494141 C-15.75270654 24.02932495 -11.82147572 16.45948415 -7.93276978 8.86721802 C-7.49029907 8.01071655 -7.04782837 7.15421509 -6.59194946 6.27175903 C-6.21425415 5.53505981 -5.83655884 4.7983606 -5.44741821 4.03933716 C-3.91575056 1.3976407 -3.10835591 0.31091844 0 0 Z " fill="#40596A" transform="translate(121.40444946289063,436.7594909667969)"/>
<path d="M0 0 C6.14424706 3.8080828 9.84058571 10.29128839 12.08984375 17.0390625 C12.98659916 25.45575257 12.1167997 32.10372513 7.08984375 39.0390625 C1.67952042 44.96654909 -3.118057 48.56096443 -11.27734375 49.375 C-18.48864655 49.45530404 -23.92931956 49.25911759 -29.91015625 45.0390625 C-30.81765625 44.4203125 -31.72515625 43.8015625 -32.66015625 43.1640625 C-37.7519972 38.3551016 -40.44564835 32.89203332 -41.28125 25.9609375 C-41.46258656 17.29944992 -40.11884097 10.87435041 -34.3359375 4.23046875 C-24.04425761 -5.3894931 -12.28425011 -6.1798068 0 0 Z " fill="#364A5D" transform="translate(390.91015625,338.9609375)"/>
<path d="M0 0 C5.78744309 3.45301226 10.49596261 8.39907126 12.90234375 14.796875 C15.15930148 25.01846867 13.09199167 33.09651309 7.625 41.6875 C1.36704793 47.94545207 -4.65470635 50.06912055 -13.375 50.25 C-21.69327944 50.16380021 -26.28697506 48.26126468 -32.375 42.75 C-38.33990456 36.30735709 -40.39033076 29.67926135 -40.078125 20.9375 C-38.98375347 13.69200573 -35.28946306 7.54810946 -29.625 2.9375 C-28.86703125 2.24140625 -28.86703125 2.24140625 -28.09375 1.53125 C-20.55300919 -4.42196643 -8.43035038 -3.8447507 0 0 Z " fill="#354A5D" transform="translate(148.625,338.0625)"/>
<path d="M0 0 C4.10488479 2.82780952 7.56757505 6.44765011 9.8125 10.9375 C10.62554038 17.36185182 9.70096927 22.68152624 5.8125 27.9375 C-0.24473552 32.75856501 -5.62652395 33.76448176 -13.1875 32.9375 C-18.15704332 30.59337579 -21.98173951 27.00327197 -24.1875 21.9375 C-25.21716411 16.37399231 -24.92105156 11.4790154 -22.125 6.5 C-16.49771927 -1.17643057 -8.92809607 -2.97603202 0 0 Z " fill="#F2F0F0" transform="translate(284.1875,33.0625)"/>
<path d="M0 0 C4.68553781 2.02208571 7.50288474 4.70810428 9.9609375 9.17578125 C11.9555311 14.40235522 11.25455121 18.88717305 9.6796875 24.13671875 C7.00156422 28.77879911 4.00283564 31.6540027 -1.1953125 33.38671875 C-7.1766532 33.98948952 -11.87446587 33.4122982 -17.1953125 30.38671875 C-21.42352701 26.04422817 -23.26837061 21.95786237 -23.5703125 15.94921875 C-23.4491322 11.38223621 -22.22452346 8.89422618 -19.1953125 5.38671875 C-13.19836361 -0.25836834 -8.15500204 -2.27817673 0 0 Z " fill="#F2F0F0" transform="translate(241.1953125,32.61328125)"/>
</svg>
